<mxfile host="app.diagrams.net" modified="2024-07-09T04:24:19.057Z" agent="Mozilla/5.0 (Windows NT 10.0; Win64; x64) AppleWebKit/537.36 (KHTML, like Gecko) Chrome/126.0.0.0 Safari/537.36" version="24.6.4" etag="_22a1jbJcv7F7z33-05y" type="github">
  <diagram name="第 1 页" id="y95y03z3WlT_Z_aDNqDH">
    <mxGraphModel>
      <root>
        <mxCell id="0" />
        <mxCell id="1" parent="0" />
      </root>
    </mxGraphModel>
  </diagram>
</mxfile>
